<svg xmlns="http://www.w3.org/2000/svg" version="1.0" width="100.000000pt" height="100.000000pt" viewBox="0 0 100.000000 100.000000" preserveAspectRatio="xMidYMid meet">

<g transform="translate(0.000000,100.000000) scale(0.100000,-0.100000)" fill="#142c2d" stroke="none">
<path d="M263 981 c-3 -14 -15 -21 -37 -23 -19 -2 -31 -8 -31 -18 0 -12 16 -15 85 -15 69 0 85 3 85 15 0 10 -12 16 -31 18 -22 2 -34 9 -37 23 -3 10 -10 19 -17 19 -7 0 -14 -9 -17 -19z" fill="#142c2d"/>
<path d="M170 880 c0 -20 5 -21 108 -18 87 2 107 6 107 18 0 12 -20 16 -107 18 -103 3 -108 2 -108 -18z" fill="#142c2d"/>
<path d="M160 820 c0 -20 5 -21 118 -18 96 2 117 6 117 18 0 12 -21 16 -117 18 -113 3 -118 2 -118 -18z" fill="#142c2d"/>
<path d="M170 760 c0 -20 5 -21 108 -18 87 2 107 6 107 18 0 12 -20 16 -107 18 -103 3 -108 2 -108 -18z" fill="#142c2d"/>
<path d="M620 750 l0 -30 100 0 100 0 0 30 0 30 -100 0 -100 0 0 -30z" fill="#142c2d"/>
<path d="M190 700 c0 -16 6 -20 35 -20 l35 0 0 -130 c0 -123 1 -130 20 -130 19 0 20 7 20 129 l0 130 33 3 c20 2 32 8 32 18 0 12 -18 16 -87 18 -83 3 -88 2 -88 -18z" fill="#142c2d"/>
<path d="M567 674 c-4 -4 -7 -148 -7 -321 0 -384 -14 -353 160 -353 175 0 161 -32 158 358 l-3 317 -151 3 c-82 1 -153 -1 -157 -4z m273 -134 c0 -19 -7 -20 -120 -20 -113 0 -120 1 -120 20 0 19 7 20 120 20 113 0 120 -1 120 -20z m0 -80 c0 -19 -7 -20 -120 -20 -113 0 -120 1 -120 20 0 19 7 20 120 20 113 0 120 -1 120 -20z" fill="#142c2d"/>
<path d="M127 394 c-4 -4 -7 -85 -7 -181 0 -222 -7 -213 160 -213 168 0 161 -10 158 218 l-3 177 -151 3 c-82 1 -153 -1 -157 -4z" fill="#142c2d"/>
</g>
</svg>