<svg xmlns="http://www.w3.org/2000/svg" version="1.0" width="100.000000pt" height="100.000000pt" viewBox="0 0 100.000000 100.000000" preserveAspectRatio="xMidYMid meet">

<g transform="translate(0.000000,100.000000) scale(0.100000,-0.100000)" fill="#142c2d" stroke="none">
<path d="M395 930 c-50 -25 -102 -83 -115 -129 -6 -20 -19 -121 -29 -225 -18 -184 -17 -230 9 -260 7 -10 0 -17 -29 -31 -22 -9 -51 -30 -66 -45 -24 -26 -26 -32 -23 -116 l3 -89 359 -3 c281 -2 361 1 368 10 11 18 10 141 -2 172 -8 21 -83 75 -125 89 -6 2 -4 11 4 21 18 21 17 61 -4 283 -18 188 -26 219 -68 269 -60 71 -194 96 -282 54z m194 -30 c40 -20 87 -69 101 -105 11 -28 43 -381 38 -425 -3 -33 -6 -35 -43 -40 -38 -5 -40 -7 -45 -45 -7 -53 -40 -70 -140 -70 -100 0 -133 17 -140 70 -4 36 -8 40 -35 43 -55 7 -58 15 -50 142 4 63 10 138 14 165 l7 50 7 -47 c9 -61 51 -165 80 -196 50 -55 126 -66 191 -28 65 38 95 109 113 274 5 42 -8 57 -24 27 -7 -11 -13 -7 -27 19 -38 71 -149 99 -217 53 -20 -13 -46 -45 -61 -76 -19 -36 -28 -47 -28 -33 0 14 -6 22 -16 22 -14 0 -16 9 -12 50 13 129 169 211 287 150z m-29 -135 c17 -9 30 -17 30 -18 0 -1 -38 -2 -86 -2 -83 0 -84 1 -63 18 26 21 80 22 119 2z m10 -56 c62 -13 74 -36 67 -121 -6 -69 -30 -114 -78 -146 -39 -27 -92 -26 -135 3 -76 49 -87 245 -16 261 15 3 32 7 37 9 21 7 76 5 125 -6z m-238 -451 c5 -50 58 -73 168 -73 110 0 163 23 168 73 2 18 9 32 16 32 7 0 45 -16 85 -36 l71 -35 0 -80 0 -79 -69 0 -70 0 -3 48 c-4 59 -22 58 -26 -3 l-3 -45 -169 0 -169 0 -3 48 c-4 61 -22 61 -26 0 l-3 -48 -65 0 -64 0 0 73 c0 58 4 77 18 90 16 15 120 67 134 67 4 0 8 -15 10 -32z" fill="#142c2d"/>
<path d="M653 480 c-9 -46 -77 -118 -124 -130 -37 -10 -49 -23 -31 -34 16 -10 81 14 113 41 30 25 79 112 79 141 0 26 -31 11 -37 -18z" fill="#142c2d"/>
<path d="M330 442 c0 -100 83 -192 172 -192 40 0 112 39 116 63 5 24 -11 21 -54 -8 -42 -28 -73 -31 -112 -11 -45 23 -70 58 -85 116 -16 60 -37 79 -37 32z" fill="#142c2d"/>
<path d="M393 653 c-25 -10 -12 -21 22 -20 22 1 35 6 35 14 0 13 -33 16 -57 6z" fill="#142c2d"/>
<path d="M547 654 c-15 -15 -6 -24 21 -21 15 2 28 7 30 13 3 11 -41 18 -51 8z" fill="#142c2d"/>
<path d="M410 600 c0 -13 5 -20 13 -17 6 2 12 10 12 17 0 7 -6 15 -12 18 -8 2 -13 -5 -13 -18z" fill="#142c2d"/>
<path d="M565 610 c-7 -12 2 -30 16 -30 5 0 9 9 9 20 0 21 -15 27 -25 10z" fill="#142c2d"/>
<path d="M481 551 c-11 -20 -5 -31 16 -31 7 0 13 11 13 25 0 29 -15 33 -29 6z" fill="#142c2d"/>
<path d="M470 480 c0 -5 16 -10 35 -10 19 0 35 5 35 10 0 6 -16 10 -35 10 -19 0 -35 -4 -35 -10z" fill="#142c2d"/>
</g>
</svg>