<svg xmlns="http://www.w3.org/2000/svg" version="1.0" width="100.000000pt" height="100.000000pt" viewBox="0 0 100.000000 100.000000" preserveAspectRatio="xMidYMid meet">

<g transform="translate(0.000000,100.000000) scale(0.100000,-0.100000)" fill="#142c2d" stroke="none">
<path d="M400 920 c-17 -17 -20 -33 -20 -110 l0 -90 120 0 120 0 0 90 c0 120 -9 130 -120 130 -67 0 -83 -3 -100 -20z" fill="#142c2d"/>
<path d="M347 663 c-8 -10 -38 -75 -66 -146 -55 -137 -60 -172 -41 -283 25 -144 6 -134 260 -134 254 0 235 -10 260 134 19 111 14 146 -41 283 -28 71 -58 136 -66 146 -14 15 -35 17 -153 17 -118 0 -139 -2 -153 -17z m173 -153 c0 -123 -1 -130 -20 -130 -19 0 -20 7 -20 130 0 123 1 130 20 130 19 0 20 -7 20 -130z m4 -180 c3 -16 9 -43 12 -60 6 -34 -2 -39 -22 -12 -13 16 -13 16 -14 0 0 -11 -8 -18 -21 -18 -18 0 -20 4 -15 30 3 17 9 44 12 60 4 20 11 30 24 30 13 0 20 -10 24 -30z" fill="#142c2d"/>
</g>
</svg>