<svg xmlns="http://www.w3.org/2000/svg" version="1.0" width="100.000000pt" height="100.000000pt" viewBox="0 0 100.000000 100.000000" preserveAspectRatio="xMidYMid meet">

<g transform="translate(0.000000,100.000000) scale(0.100000,-0.100000)" fill="#d2b278" stroke="none">
<path d="M346 913 c-17 -4 -18 -12 -13 -68 8 -88 33 -145 62 -145 13 0 27 -4 30 -10 8 -13 161 -13 184 0 26 13 51 82 58 155 l6 63 -32 7 c-41 9 -96 -10 -121 -42 l-21 -27 -16 23 c-26 38 -85 57 -137 44z" fill="#d2b278"/>
<path d="M419 624 c-9 -11 -22 -14 -45 -9 -30 5 -36 1 -81 -50 -26 -31 -62 -77 -80 -103 l-31 -47 42 -6 c23 -4 66 -19 96 -34 45 -23 60 -26 94 -20 42 8 111 10 181 4 31 -2 51 4 88 28 26 17 63 34 82 37 19 4 35 9 35 12 0 14 -70 105 -116 152 l-53 52 -99 0 c-78 0 -102 -3 -113 -16z" fill="#d2b278"/>
<path d="M780 380 c-25 -4 -69 -22 -98 -41 l-53 -33 -64 13 c-53 11 -77 11 -129 0 -63 -12 -64 -12 -117 18 -30 17 -77 34 -104 37 l-51 7 -17 -37 c-10 -20 -17 -38 -15 -39 2 -1 27 -8 57 -14 29 -6 82 -27 117 -47 63 -35 65 -36 115 -24 34 8 81 10 135 6 l83 -7 66 40 c37 22 84 42 106 46 21 4 41 11 44 16 5 7 -21 71 -28 68 -1 -1 -22 -5 -47 -9z" fill="#d2b278"/>
<path d="M95 195 c-10 -36 -16 -67 -14 -69 12 -11 201 -47 301 -57 137 -14 292 -2 446 33 l94 22 -7 34 c-14 77 -21 84 -68 77 -23 -3 -78 -24 -122 -47 -74 -38 -83 -40 -130 -32 -27 4 -97 7 -155 6 l-105 -3 -55 36 c-30 19 -73 40 -95 46 -22 6 -47 12 -56 15 -13 4 -20 -10 -34 -61z" fill="#d2b278"/>
</g>
</svg>