<svg xmlns="http://www.w3.org/2000/svg" version="1.0" width="100.000000pt" height="100.000000pt" viewBox="0 0 100.000000 100.000000" preserveAspectRatio="xMidYMid meet">

<g transform="translate(0.000000,100.000000) scale(0.100000,-0.100000)" fill="#d2b278" stroke="none">
<path d="M522 979 c-30 -12 -74 -40 -98 -63 -40 -38 -44 -47 -44 -89 l0 -47 120 0 121 0 -3 108 c-3 124 -5 126 -96 91z" fill="#d2b278"/>
<path d="M352 728 c-8 -8 -12 -63 -12 -180 l0 -168 160 0 160 0 0 168 c0 117 -4 172 -12 180 -17 17 -279 17 -296 0z" fill="#d2b278"/>
<path d="M300 320 c-18 -18 -20 -33 -20 -150 0 -179 -12 -170 220 -170 232 0 220 -9 220 170 0 179 12 170 -220 170 -167 0 -181 -1 -200 -20z" fill="#d2b278"/>
</g>
</svg>