<svg xmlns="http://www.w3.org/2000/svg" version="1.0" width="100.000000pt" height="100.000000pt" viewBox="0 0 100.000000 100.000000" preserveAspectRatio="xMidYMid meet">

<g transform="translate(0.000000,100.000000) scale(0.100000,-0.100000)" fill="#d2b278" stroke="none">
<path d="M430 945 c-31 -8 -46 -17 -48 -31 -1 -10 -9 -44 -16 -74 -30 -119 -33 -108 27 -107 28 0 68 -3 89 -7 26 -6 45 -4 66 7 l30 14 4 -63 c3 -42 10 -70 20 -81 15 -15 19 -14 47 15 39 38 39 65 1 125 -25 39 -30 59 -32 119 l-3 71 -50 13 c-59 15 -75 15 -135 -1z m132 -82 c10 -9 18 -25 18 -35 0 -30 -45 -68 -80 -68 -19 0 -40 9 -55 25 -27 26 -31 46 -15 76 14 25 104 27 132 2z" fill="#d2b278"/>
<path d="M352 680 c-18 -11 -37 -32 -42 -46 -6 -14 -10 -86 -10 -160 0 -120 2 -136 20 -154 17 -17 20 -36 22 -137 l3 -118 40 -8 c22 -5 52 -8 68 -8 15 0 36 0 47 0 11 0 32 0 48 0 15 0 45 3 67 8 l40 8 3 118 c2 101 5 120 22 137 18 18 20 34 20 150 l0 131 -37 -26 c-21 -14 -43 -25 -48 -25 -24 0 -67 59 -72 99 -10 75 -23 31 -23 -80 0 -102 -1 -109 -20 -109 -19 0 -20 7 -20 109 l0 109 -31 11 c-44 15 -59 14 -97 -9z m26 -317 c-2 -10 -10 -18 -18 -18 -8 0 -16 8 -18 18 -2 12 3 17 18 17 15 0 20 -5 18 -17z m280 0 c-2 -10 -10 -18 -18 -18 -8 0 -16 8 -18 18 -2 12 3 17 18 17 15 0 20 -5 18 -17z" fill="#d2b278"/>
</g>
</svg>